<svg fill="#ffffff4d" xmlns="http://www.w3.org/2000/svg" viewBox="0 0 100 100" width="100px" height="100px"><path d="M 57.316406 26 C 50.583718 26 44.281856 29.370427 41.183594 34.935547 A 1.0001 1.0001 0 0 0 41.058594 35.419922 L 41 66.998047 A 1.0001 1.0001 0 0 0 42 68 L 79.421875 68 C 86.357297 68 92 62.357297 92 55.421875 C 92 48.486453 86.357297 42.841797 79.421875 42.841797 C 77.905342 42.841797 76.488708 43.192815 75.142578 43.6875 C 75.057303 33.917827 67.10594 26 57.316406 26 z M 57.316406 28 C 66.078021 28 73.158203 35.080182 73.158203 43.841797 C 73.158203 44.234422 73.129473 44.640245 73.095703 45.070312 A 1.0001 1.0001 0 0 0 74.552734 46.035156 C 76.013008 45.275741 77.663895 44.841797 79.421875 44.841797 C 85.276453 44.841797 90 49.567297 90 55.421875 C 90 61.276453 85.276453 66 79.421875 66 L 43.001953 66 L 43.058594 35.744141 C 45.798212 30.996533 51.328901 28 57.316406 28 z M 33.982422 33.986328 A 1.0001 1.0001 0 0 0 33 35.001953 L 33.082031 67.001953 A 1.0001 1.0001 0 1 0 35.082031 66.998047 L 35 34.998047 A 1.0001 1.0001 0 0 0 33.982422 33.986328 z M 37.984375 34.986328 A 1.0001 1.0001 0 0 0 37 36 L 37 67 A 1.0001 1.0001 0 1 0 39 67 L 39 36 A 1.0001 1.0001 0 0 0 37.984375 34.986328 z M 29.984375 35.986328 A 1.0001 1.0001 0 0 0 29 37 L 29 67 A 1.0001 1.0001 0 1 0 31 67 L 31 37 A 1.0001 1.0001 0 0 0 29.984375 35.986328 z M 25.982422 38.986328 A 1.0001 1.0001 0 0 0 25 40.003906 L 25.082031 67.003906 A 1.0001 1.0001 0 1 0 27.082031 66.996094 L 27 39.996094 A 1.0001 1.0001 0 0 0 25.982422 38.986328 z M 17.980469 42.986328 A 1.0001 1.0001 0 0 0 17 44.003906 L 17.082031 67.003906 A 1.0001 1.0001 0 1 0 19.082031 66.996094 L 19 43.996094 A 1.0001 1.0001 0 0 0 17.980469 42.986328 z M 21.984375 42.986328 A 1.0001 1.0001 0 0 0 21 44 L 21 67 A 1.0001 1.0001 0 1 0 23 67 L 23 44 A 1.0001 1.0001 0 0 0 21.984375 42.986328 z M 13.984375 44.986328 A 1.0001 1.0001 0 0 0 13 46 L 13 65 A 1.0001 1.0001 0 1 0 15 65 L 15 46 A 1.0001 1.0001 0 0 0 13.984375 44.986328 z M 9.984375 48.986328 A 1.0001 1.0001 0 0 0 9 50 L 9 62 A 1.0001 1.0001 0 1 0 11 62 L 11 50 A 1.0001 1.0001 0 0 0 9.984375 48.986328 z M 46.007812 63 A 0.50005 0.50005 0 1 0 46.007812 64 L 66.5 64 A 0.50005 0.50005 0 1 0 66.5 63 L 46.007812 63 z M 69.5 63 A 0.50005 0.50005 0 1 0 69.5 64 L 71.5 64 A 0.50005 0.50005 0 1 0 71.5 63 L 69.5 63 z M 73.5 63 A 0.50005 0.50005 0 1 0 73.5 64 L 79.421875 64 A 0.50005 0.50005 0 1 0 79.421875 63 L 73.5 63 z"/></svg>